<?xml version="1.0" encoding="UTF-8" standalone="no"?>
<svg width="50px" height="50px" viewBox="0 0 50 50" version="1.1" xmlns="http://www.w3.org/2000/svg" xmlns:xlink="http://www.w3.org/1999/xlink" xmlns:sketch="http://www.bohemiancoding.com/sketch/ns">
    <!-- Generator: Sketch 3.3.3 (12081) - http://www.bohemiancoding.com/sketch -->
    <title>About Talkdesk</title>
    <desc>Created with Sketch.</desc>
    <defs></defs>
    <g id="Page-1" stroke="none" stroke-width="1" fill="none" fill-rule="evenodd" sketch:type="MSPage">
        <g id="About-Talkdesk" sketch:type="MSArtboardGroup" transform="translate(-25.000000, -25.000000)">
            <path d="M38.7036316,48.5280699 C37.1489658,48.5280699 36.1887311,48.4815583 36.1887311,48.4815583 C35.9143783,48.4815583 35.7314765,48.2490001 35.7772019,47.9699303 C35.7772019,47.6908606 36.0058292,47.5513257 36.280182,47.5513257 C36.4173584,47.5513257 51.4610361,48.5280699 56.9023663,42.4815583 C56.9938173,42.388535 57.1767191,42.2955117 57.3138955,42.3420234 C57.4510719,42.3420234 57.5882483,42.4350466 57.6796992,42.5745815 C58.9600122,45.1792327 62.8924021,46.2955117 62.9381276,46.2955117 C63.1667549,46.3420234 63.3039313,46.6210931 63.2582059,46.8536513 C63.2124804,47.0862094 62.9381276,47.2257443 62.7095003,47.1792327 C62.5265984,47.132721 58.8228358,46.0629536 57.1767191,43.5048141 C54.6618186,45.9234187 50.5008014,47.5048141 44.6936674,48.2024885 C42.3616688,48.4350466 40.2582974,48.5280699 38.7036316,48.5280699 L38.7036316,48.5280699 Z M60.1488743,32.6676048 C57.4967974,29.6908606 53.1528783,28.2490001 48.6260573,28.2490001 C40.6698266,28.2490001 32.2563412,32.7141164 32.2563412,41.0862094 C32.2563412,43.7838838 32.8964977,50.9466745 32.8964977,50.9466745 L32.6221449,50.9466745 C31.9362629,50.9466745 30.2901462,51.2722559 30.3815971,54.4350466 C30.5187735,58.388535 32.530694,61.5978373 33.5366542,61.9699303 C33.7652815,62.0629536 33.9481834,62.1094652 34.1310852,62.1094652 C34.6797908,62.1094652 34.8626926,61.7373722 34.8626926,61.7373722 C34.8626926,61.7373722 37.1946913,67.9699303 39.1151608,70.6676048 C41.1270812,73.5048141 44.6936674,75.1792327 49.4948412,75.1792327 C53.8387603,75.1792327 56.8566409,73.7373722 59.4629923,70.6676048 C60.8804817,68.9931862 62.2522457,66.1559769 63.1210295,64.1094652 C62.1607947,64.8071396 61.2462854,65.3652792 60.2860507,65.8769071 C59.6001687,67.2257443 58.8228358,68.5745815 58.0912284,69.4117908 C55.7592297,72.1094652 53.1986038,73.2722559 49.4948412,73.2722559 C45.4710003,73.2722559 42.3159433,71.9234187 40.6241011,69.5513257 C39.1608863,67.5048141 37.2404168,62.760628 36.6002603,61.0862094 L35.1370454,57.132721 L33.8567324,59.7373722 C33.2165759,58.760628 32.3477921,56.760628 32.2563412,54.388535 C32.2106157,53.4583024 32.3935176,52.9931862 32.530694,52.8536513 C32.5764194,52.8071396 32.6221449,52.8071396 32.6678704,52.8071396 L35.1827709,53.5513257 L34.7712417,50.8071396 C34.7712417,50.7141164 34.1310852,43.6908606 34.1310852,41.132721 C34.1310852,37.0396978 36.5088093,34.4815583 38.5207298,33.0396978 C41.2185321,31.1792327 44.9222947,30.016442 48.6717828,30.016442 C53.0157019,30.016442 56.673739,31.4583024 58.8228358,33.8769071 L59.3258159,34.4350466 L60.0574234,34.5280699 C60.9719327,34.6210931 62.0236183,35.3187676 62.9381276,36.4815583 C64.2184406,38.0629536 64.950048,40.016442 64.8585971,40.9466745 C64.5842443,43.644349 64.2641661,50.5745815 64.2184406,50.9001629 L64.0812642,53.5048141 L65.1786754,53.1792327 C65.2244008,52.9001629 65.2701263,52.6210931 65.3615772,52.388535 C65.5444791,51.5978373 65.7731064,50.9466745 66.0931846,50.4350466 C66.1846356,48.6676048 66.4589884,43.4117908 66.6876157,41.1792327 C66.8705175,38.388535 63.761186,32.9931862 60.1488743,32.6676048 L60.1488743,32.6676048 Z" id="Shape" fill="#494B49" sketch:type="MSShapeGroup"></path>
            <path d="M69.2482417,50.5280699 C69.5683199,49.3187676 69.9798491,47.4117908 70.1627509,45.1792327 C70.5742801,40.0629536 69.1567907,35.644349 66.8705175,32.3420234 C63.4868332,27.5978373 56.9938173,25.1792327 49.4491157,25.1792327 C40.9899048,25.1792327 34.999869,27.5513257 31.5704592,32.2490001 C26.3577563,39.4583024 29.3299115,49.3652792 29.4670879,49.7838838 C29.6042643,50.2955117 30.1072444,50.5280699 30.6102245,50.388535 C31.1132046,50.2490001 31.3418319,49.6908606 31.2046555,49.2257443 C31.15893,49.132721 28.3696767,39.7838838 33.0336741,33.3187676 C36.0515547,29.132721 41.5843359,27.3187676 49.4033902,27.0396978 C55.7592297,26.8071396 62.2979711,29.1792327 65.2701263,33.4583024 C69.2939671,39.2257443 68.1051051,47.3652792 67.3277722,50.2955117 C66.1846356,50.8536513 66.0017337,53.1792327 65.4987536,55.8769071 C65.3158517,56.760628 65.1329499,57.644349 64.9957735,58.388535 C60.7890308,63.9699303 54.2960149,65.5513257 52.2840945,65.644349 C51.9182908,64.4350466 50.7751542,63.5513257 49.4491157,63.5513257 C47.802999,63.5513257 46.4769605,64.9001629 46.4769605,66.5745815 C46.4769605,68.2490001 47.802999,69.5978373 49.4491157,69.5978373 C50.7751542,69.5978373 51.8725653,68.7141164 52.2840945,67.5048141 C54.2960149,67.4117908 60.2860507,65.8769071 64.9043226,61.3187676 C65.0872244,61.7838838 65.4073027,62.1094652 66.0474592,62.2024885 C68.1051051,62.6210931 70.2999273,60.2490001 70.9858093,56.9466745 C71.4887894,54.1094652 70.757182,51.5048141 69.2482417,50.5280699 L69.2482417,50.5280699 L69.2482417,50.5280699 Z M49.4948412,67.6908606 C48.8546847,67.6908606 48.3517046,67.1792327 48.3517046,66.5280699 C48.3517046,65.8769071 48.8546847,65.3652792 49.4948412,65.3652792 C50.1349977,65.3652792 50.6379778,65.8769071 50.6379778,66.5280699 C50.6379778,67.1792327 50.1349977,67.6908606 49.4948412,67.6908606 L49.4948412,67.6908606 L49.4948412,67.6908606 Z M69.1567907,56.5745815 C68.6995361,58.9466745 67.3734976,60.2955117 66.5961647,60.388535 C66.5961647,59.7838838 66.8705175,58.6210931 67.0534194,57.7373722 C67.1448703,57.2722559 67.2820467,56.760628 67.3734976,56.2490001 C67.4649486,55.7373722 67.5563995,55.2257443 67.6478504,54.7141164 C67.7850268,53.8303955 68.0136541,52.6676048 68.2422815,52.1094652 C68.5623597,52.2955117 68.8367125,52.6676048 69.0196143,53.1792327 C69.3396926,54.1094652 69.4311435,55.3652792 69.1567907,56.5745815 L69.1567907,56.5745815 L69.1567907,56.5745815 Z" id="Shape" fill="#3A99D0" sketch:type="MSShapeGroup"></path>
        </g>
    </g>
</svg>